<?xml version="1.0" encoding="UTF-8" standalone="no"?>
<!-- Created with Inkscape (http://www.inkscape.org/) -->

<svg
   width="1024"
   height="1024"
   viewBox="0 0 270.93333 270.93333"
   version="1.1"
   id="svg1"
   xml:space="preserve"
   inkscape:version="1.4.2 (f4327f4, 2025-05-13)"
   sodipodi:docname="Logo.svg"
   xmlns:inkscape="http://www.inkscape.org/namespaces/inkscape"
   xmlns:sodipodi="http://sodipodi.sourceforge.net/DTD/sodipodi-0.dtd"
   xmlns="http://www.w3.org/2000/svg"
   xmlns:svg="http://www.w3.org/2000/svg"><sodipodi:namedview
     id="namedview1"
     pagecolor="#505050"
     bordercolor="#ffffff"
     borderopacity="1"
     inkscape:showpageshadow="0"
     inkscape:pageopacity="0"
     inkscape:pagecheckerboard="1"
     inkscape:deskcolor="#505050"
     inkscape:document-units="px"
     showguides="true"
     inkscape:zoom="0.36756309"
     inkscape:cx="28.566525"
     inkscape:cy="104.74392"
     inkscape:window-width="2560"
     inkscape:window-height="1369"
     inkscape:window-x="-8"
     inkscape:window-y="-8"
     inkscape:window-maximized="1"
     inkscape:current-layer="layer1" /><defs
     id="defs1" /><g
     inkscape:label="Layer"
     inkscape:groupmode="layer"
     id="layer1"><g
       id="g2"
       inkscape:label="Text"
       transform="matrix(1.6261942,0,0,1.6261942,-84.018049,-33.933614)"><rect
         style="font-variation-settings:'wdth' 75, 'wght' 700;fill:#ffcc00;stroke-width:0.264583"
         id="rect2"
         width="136.04808"
         height="35.991562"
         x="66.94429"
         y="132.089"
         rx="3.952337"
         ry="4.3864737" /><text
         xml:space="preserve"
         style="font-style:normal;font-variant:normal;font-weight:normal;font-stretch:normal;font-size:28.7433px;font-family:Roboto;-inkscape-font-specification:'Roboto, @wght=900';font-variant-ligatures:normal;font-variant-caps:normal;font-variant-numeric:normal;font-variant-east-asian:normal;font-variation-settings:'wght' 900;text-align:start;writing-mode:lr-tb;direction:ltr;text-anchor:start;fill:#000000;stroke-width:0.264583"
         x="73.369629"
         y="160.88223"
         id="text2"><tspan
           sodipodi:role="line"
           id="tspan2"
           style="font-style:normal;font-variant:normal;font-weight:normal;font-stretch:normal;font-size:28.7433px;font-family:Roboto;-inkscape-font-specification:'Roboto, @wght=900';font-variant-ligatures:normal;font-variant-caps:normal;font-variant-numeric:normal;font-variant-east-asian:normal;font-variation-settings:'wght' 900;fill:#000000;stroke-width:0.264583"
           x="73.369629"
           y="160.88223">UI Toolkit</tspan></text></g><g
       id="g3"
       inkscape:label="Shapes"
       transform="matrix(1.4063252,0,0,1.4063252,-55.043513,-2.453346)"
       style="fill:#00c4d4;fill-opacity:1"><path
         id="path4"
         style="fill:#00c4d4;fill-opacity:1;stroke-width:0.315575"
         d="m 213.20279,43.817311 c 5.3e-4,2.57664 -7.20941,2.96556 -10.63257,6.388713 -3.42314,3.423139 -3.37872,12.089085 -6.38871,12.047487 -3.01,-0.04164 -2.59104,-8.49949 -6.0142,-11.922646 -3.42315,-3.423138 -10.5961,-3.282241 -10.59094,-6.139013 0.004,-2.856767 7.00136,-2.299732 10.4245,-5.722888 3.42313,-3.42314 2.96058,-12.34823 6.18064,-12.338785 3.22005,0.009 2.46618,8.457877 5.88933,11.881018 3.42315,3.423155 11.1314,3.22948 11.13195,5.806114 z"
         sodipodi:nodetypes="zszszszsz" /><path
         id="path6"
         style="fill:#00c4d4;fill-opacity:1;stroke-width:0.44688"
         d="m 105.34844,93.612126 c 7.9e-4,3.648762 -10.209125,4.199491 -15.056597,9.046964 -4.847489,4.84749 -4.784569,17.11924 -9.046998,17.06031 -4.262424,-0.059 -3.669141,-12.03602 -8.516601,-16.8835 -4.847482,-4.847485 -15.005001,-4.647946 -14.997702,-8.693382 0.0073,-4.045451 9.914514,-3.256642 14.761995,-8.104116 4.84746,-4.847487 4.192438,-17.486184 8.752308,-17.472786 4.559866,0.01358 3.492342,11.977084 8.339818,16.824541 4.847473,4.847489 15.762997,4.573228 15.763777,8.221969 z"
         sodipodi:nodetypes="zszszszsz" /><circle
         style="fill:#00c4d4;fill-opacity:1;stroke:none;stroke-width:0.360028;stroke-opacity:1"
         id="path7"
         cx="164.84145"
         cy="74.391808"
         r="18.354265" /><circle
         style="fill:#00c4d4;fill-opacity:1;stroke:none;stroke-width:0.228775;stroke-opacity:1"
         id="circle9"
         cx="117.01148"
         cy="65.544395"
         r="11.663025" /><circle
         style="fill:#00c4d4;fill-opacity:1;stroke:none;stroke-width:0.279375;stroke-opacity:1"
         id="circle12"
         cx="132.24464"
         cy="106.98861"
         r="14.242539" /><path
         id="path12"
         style="fill:#00c4d4;fill-opacity:1;stroke-width:0.230179"
         d="m 154.54305,34.173216 c 3.9e-4,1.879411 -5.25854,2.163089 -7.7554,4.659938 -2.49685,2.496842 -2.46443,8.817764 -4.65995,8.787421 -2.19548,-0.03033 -1.88989,-6.199508 -4.38674,-8.696361 -2.49684,-2.496839 -7.7288,-2.39407 -7.72504,-4.477809 0.003,-2.083726 5.10679,-1.677424 7.60364,-4.174274 2.49683,-2.496842 2.15945,-9.006806 4.50814,-8.999917 2.34872,0.0067 1.79884,6.169179 4.29569,8.666019 2.49685,2.496852 8.11927,2.355586 8.11966,4.234983 z"
         sodipodi:nodetypes="zszszszsz" /><circle
         style="fill:#00c4d4;fill-opacity:1;stroke:none;stroke-width:0.228775;stroke-opacity:1"
         id="circle13"
         cx="198.89287"
         cy="107.28922"
         r="11.663025" /><circle
         style="fill:#00c4d4;fill-opacity:1;stroke:none;stroke-width:0.197697;stroke-opacity:1"
         id="circle14"
         cx="87.383545"
         cy="42.39645"
         r="10.078598" /></g></g></svg>
