<?xml version="1.0" encoding="UTF-8" standalone="no"?>
<!-- Created with Inkscape (http://www.inkscape.org/) -->

<svg
   width="1024"
   height="1024"
   viewBox="0 0 270.93333 270.93333"
   version="1.1"
   id="svg1"
   xml:space="preserve"
   inkscape:version="1.4.2 (f4327f4, 2025-05-13)"
   sodipodi:docname="Logo.svg"
   xmlns:inkscape="http://www.inkscape.org/namespaces/inkscape"
   xmlns:sodipodi="http://sodipodi.sourceforge.net/DTD/sodipodi-0.dtd"
   xmlns="http://www.w3.org/2000/svg"
   xmlns:svg="http://www.w3.org/2000/svg"><sodipodi:namedview
     id="namedview1"
     pagecolor="#505050"
     bordercolor="#ffffff"
     borderopacity="1"
     inkscape:showpageshadow="0"
     inkscape:pageopacity="0"
     inkscape:pagecheckerboard="1"
     inkscape:deskcolor="#505050"
     inkscape:document-units="px"
     showguides="true"
     inkscape:zoom="0.36756309"
     inkscape:cx="31.287146"
     inkscape:cy="104.74392"
     inkscape:window-width="2560"
     inkscape:window-height="1369"
     inkscape:window-x="-8"
     inkscape:window-y="-8"
     inkscape:window-maximized="1"
     inkscape:current-layer="layer1" /><defs
     id="defs1" /><g
     inkscape:label="Layer"
     inkscape:groupmode="layer"
     id="layer1"><g
       id="g2"
       inkscape:label="Text"
       transform="matrix(1.6261942,0,0,1.6261942,-84.018049,-33.933614)"><rect
         style="font-variation-settings:'wdth' 75, 'wght' 700;fill:#ffcc00;stroke-width:0.264583"
         id="rect2"
         width="136.04808"
         height="35.991562"
         x="66.94429"
         y="132.089"
         rx="3.952337"
         ry="4.3864737" /><path
         d="m 83.769426,140.44754 h 4.813942 v 13.9085 q 0,2.38592 -0.856124,3.90168 -0.856124,1.50173 -2.399953,2.20347 -1.54383,0.70174 -3.649052,0.70174 -2.091187,0 -3.649052,-0.70174 -1.557864,-0.70174 -2.442057,-2.20347 -0.870159,-1.51576 -0.870159,-3.90168 v -13.9085 h 4.827976 v 13.9085 q 0,1.26314 0.224557,1.92277 0.238592,0.64561 0.715776,0.87016 0.477183,0.22456 1.192959,0.22456 0.72981,0 1.192959,-0.22456 0.463149,-0.22455 0.673671,-0.87016 0.224557,-0.65963 0.224557,-1.92277 z m 15.115494,0 v 20.43469 h -4.785871 v -20.43469 z m 18.89086,0 v 20.43469 h -4.81394 v -20.43469 z m 4.95429,0 v 3.80344 H 108.1479 v -3.80344 z m 0.75788,13.55763 v -1.41751 q 0,-1.79646 0.44911,-3.12977 0.44912,-1.34734 1.27717,-2.23153 0.82806,-0.89823 1.97891,-1.34734 1.15086,-0.46315 2.56837,-0.46315 1.44559,0 2.59644,0.46315 1.15086,0.44911 1.97891,1.34734 0.82806,0.88419 1.27717,2.23153 0.44911,1.33331 0.44911,3.12977 v 1.41751 q 0,1.78243 -0.44911,3.12977 -0.44911,1.34734 -1.27717,2.24557 -0.81402,0.89823 -1.97891,1.34734 -1.15085,0.43508 -2.56837,0.43508 -1.41751,0 -2.5824,-0.43508 -1.16489,-0.44911 -1.99295,-1.34734 -0.82805,-0.89823 -1.27717,-2.24557 -0.44911,-1.34734 -0.44911,-3.12977 z m 4.61745,-1.41751 v 1.41751 q 0,0.96841 0.11228,1.65611 0.11228,0.67367 0.3228,1.09472 0.22456,0.40701 0.53333,0.58946 0.30876,0.18245 0.71577,0.18245 0.51929,0 0.84209,-0.18245 0.33684,-0.18245 0.51929,-0.58946 0.18245,-0.42105 0.23859,-1.09472 0.0702,-0.6877 0.0702,-1.65611 v -1.41751 q 0,-0.95437 -0.11227,-1.61401 -0.0983,-0.67367 -0.3228,-1.09471 -0.21053,-0.43508 -0.53333,-0.61753 -0.3228,-0.19649 -0.72981,-0.19649 -0.39297,0 -0.70174,0.19649 -0.30876,0.18245 -0.51929,0.61753 -0.21052,0.42104 -0.3228,1.09471 -0.11228,0.65964 -0.11228,1.61401 z m 11.53662,1.41751 v -1.41751 q 0,-1.79646 0.44911,-3.12977 0.44912,-1.34734 1.27717,-2.23153 0.82805,-0.89823 1.97891,-1.34734 1.15085,-0.46315 2.56837,-0.46315 1.44559,0 2.59644,0.46315 1.15086,0.44911 1.97891,1.34734 0.82805,0.88419 1.27717,2.23153 0.44911,1.33331 0.44911,3.12977 v 1.41751 q 0,1.78243 -0.44911,3.12977 -0.44912,1.34734 -1.27717,2.24557 -0.81402,0.89823 -1.97891,1.34734 -1.15085,0.43508 -2.56837,0.43508 -1.41752,0 -2.58241,-0.43508 -1.16489,-0.44911 -1.99294,-1.34734 -0.82805,-0.89823 -1.27717,-2.24557 -0.44911,-1.34734 -0.44911,-3.12977 z m 4.61745,-1.41751 v 1.41751 q 0,0.96841 0.11228,1.65611 0.11228,0.67367 0.3228,1.09472 0.22456,0.40701 0.53332,0.58946 0.30877,0.18245 0.71578,0.18245 0.51929,0 0.84209,-0.18245 0.33683,-0.18245 0.51929,-0.58946 0.18245,-0.42105 0.23859,-1.09472 0.0702,-0.6877 0.0702,-1.65611 v -1.41751 q 0,-0.95437 -0.11228,-1.61401 -0.0982,-0.67367 -0.3228,-1.09471 -0.21052,-0.43508 -0.53332,-0.61753 -0.3228,-0.19649 -0.72981,-0.19649 -0.39298,0 -0.70174,0.19649 -0.30877,0.18245 -0.51929,0.61753 -0.21052,0.42104 -0.3228,1.09471 -0.11228,0.65964 -0.11228,1.61401 z m 16.79968,-13.2629 v 21.55747 h -4.60342 v -21.55747 z m 7.71914,-0.014 v 21.57151 h -4.60342 v -21.57151 z m 8.14019,6.38584 -5.37533,7.73319 -3.08766,3.45256 -2.02101,-3.00345 2.52626,-3.7473 2.47013,-4.435 z m -4.96832,15.18567 -2.90521,-6.91916 3.4245,-2.48416 4.72973,9.40332 z m 12.72958,-15.18567 v 15.18567 h -4.60342 v -15.18567 z m -4.82798,-3.91571 q 0,-1.01051 0.68771,-1.65611 0.70174,-0.6456 1.81049,-0.6456 1.12278,0 1.81049,0.6456 0.68771,0.6456 0.68771,1.65611 0,1.01051 -0.68771,1.65611 -0.68771,0.6456 -1.81049,0.6456 -1.10875,0 -1.81049,-0.6456 -0.68771,-0.6456 -0.68771,-1.65611 z m 15.0734,3.91571 v 3.28415 h -8.02792 v -3.28415 z m -6.5683,-3.77536 h 4.61746 v 14.00674 q 0,0.6035 0.0842,0.94034 0.0982,0.3228 0.35087,0.46314 0.26666,0.12632 0.74384,0.12632 0.33684,0 0.54736,-0.014 0.22456,-0.0281 0.39297,-0.0702 l -0.0281,3.38239 q -0.54735,0.19649 -1.13682,0.29473 -0.57542,0.11228 -1.26313,0.11228 -1.36138,0 -2.32978,-0.47718 -0.95436,-0.47719 -1.47365,-1.50173 -0.50526,-1.02454 -0.50526,-2.66661 z"
         id="text2"
         style="font-size:28.7433px;font-family:Roboto;-inkscape-font-specification:'Roboto, @wght=900';font-variation-settings:'wght' 900;stroke-width:0.264583"
         aria-label="UI Toolkit" /></g><g
       id="g3"
       inkscape:label="Shapes"
       transform="matrix(1.4063252,0,0,1.4063252,-55.043513,-2.453346)"
       style="fill:#00c4d4;fill-opacity:1"><path
         id="path4"
         style="fill:#00c4d4;fill-opacity:1;stroke-width:0.315575"
         d="m 213.20279,43.817311 c 5.3e-4,2.57664 -7.20941,2.96556 -10.63257,6.388713 -3.42314,3.423139 -3.37872,12.089085 -6.38871,12.047487 -3.01,-0.04164 -2.59104,-8.49949 -6.0142,-11.922646 -3.42315,-3.423138 -10.5961,-3.282241 -10.59094,-6.139013 0.004,-2.856767 7.00136,-2.299732 10.4245,-5.722888 3.42313,-3.42314 2.96058,-12.34823 6.18064,-12.338785 3.22005,0.009 2.46618,8.457877 5.88933,11.881018 3.42315,3.423155 11.1314,3.22948 11.13195,5.806114 z"
         sodipodi:nodetypes="zszszszsz" /><path
         id="path6"
         style="fill:#00c4d4;fill-opacity:1;stroke-width:0.44688"
         d="m 105.34844,93.612126 c 7.9e-4,3.648762 -10.209125,4.199491 -15.056597,9.046964 -4.847489,4.84749 -4.784569,17.11924 -9.046998,17.06031 -4.262424,-0.059 -3.669141,-12.03602 -8.516601,-16.8835 -4.847482,-4.847485 -15.005001,-4.647946 -14.997702,-8.693382 0.0073,-4.045451 9.914514,-3.256642 14.761995,-8.104116 4.84746,-4.847487 4.192438,-17.486184 8.752308,-17.472786 4.559866,0.01358 3.492342,11.977084 8.339818,16.824541 4.847473,4.847489 15.762997,4.573228 15.763777,8.221969 z"
         sodipodi:nodetypes="zszszszsz" /><circle
         style="fill:#00c4d4;fill-opacity:1;stroke:none;stroke-width:0.360028;stroke-opacity:1"
         id="path7"
         cx="164.84145"
         cy="74.391808"
         r="18.354265" /><circle
         style="fill:#00c4d4;fill-opacity:1;stroke:none;stroke-width:0.228775;stroke-opacity:1"
         id="circle9"
         cx="117.01148"
         cy="65.544395"
         r="11.663025" /><circle
         style="fill:#00c4d4;fill-opacity:1;stroke:none;stroke-width:0.279375;stroke-opacity:1"
         id="circle12"
         cx="132.24464"
         cy="106.98861"
         r="14.242539" /><path
         id="path12"
         style="fill:#00c4d4;fill-opacity:1;stroke-width:0.230179"
         d="m 154.54305,34.173216 c 3.9e-4,1.879411 -5.25854,2.163089 -7.7554,4.659938 -2.49685,2.496842 -2.46443,8.817764 -4.65995,8.787421 -2.19548,-0.03033 -1.88989,-6.199508 -4.38674,-8.696361 -2.49684,-2.496839 -7.7288,-2.39407 -7.72504,-4.477809 0.003,-2.083726 5.10679,-1.677424 7.60364,-4.174274 2.49683,-2.496842 2.15945,-9.006806 4.50814,-8.999917 2.34872,0.0067 1.79884,6.169179 4.29569,8.666019 2.49685,2.496852 8.11927,2.355586 8.11966,4.234983 z"
         sodipodi:nodetypes="zszszszsz" /><circle
         style="fill:#00c4d4;fill-opacity:1;stroke:none;stroke-width:0.228775;stroke-opacity:1"
         id="circle13"
         cx="198.89287"
         cy="107.28922"
         r="11.663025" /><circle
         style="fill:#00c4d4;fill-opacity:1;stroke:none;stroke-width:0.197697;stroke-opacity:1"
         id="circle14"
         cx="87.383545"
         cy="42.39645"
         r="10.078598" /></g></g></svg>
